<?xml version="1.0" standalone="no"?>
<!DOCTYPE svg PUBLIC "-//W3C//DTD SVG 1.1//EN" "http://www.w3.org/Graphics/SVG/1.1/DTD/svg11.dtd" >
<svg xmlns="http://www.w3.org/2000/svg">
<metadata>Generated by IcoMoon</metadata>
<defs>
<font id="icomoon" horiz-adv-x="1024">
<font-face units-per-em="1024" ascent="960" descent="-64" />
<missing-glyph horiz-adv-x="1024" />
<glyph unicode="&#x20;" horiz-adv-x="512" d="" />
<glyph unicode="&#x2e;" glyph-name="uni2E" d="M611.84 374.99c-6.144-7.63-11.058-16.948-14.848-27.956-3.84-11.058-5.734-21.094-5.734-30.26v-23.962h-148.274v34.254c0 23.552 3.226 44.134 9.678 61.644 6.452 17.458 17.664 36.506 33.69 57.038l84.378 108.39c9.882 12.902 17.818 25.856 23.962 38.81 6.042 12.902 9.114 25.498 9.114 37.682 0 27.392-8.346 49.766-25.088 67.328-16.794 17.46-39.22 26.266-67.328 26.266-28.878 0-51.302-8.96-67.328-26.828-15.924-17.972-23.91-40.602-23.91-67.942h-148.326c0 34.254 6.144 65.586 18.226 94.106 12.186 28.518 29.338 52.686 51.404 72.448 22.016 19.764 47.514 34.97 76.39 45.67 28.928 10.598 60.108 15.924 93.594 15.924 32.666 0 63.488-5.12 92.416-15.41 28.876-10.292 54.578-25.294 77.004-45.056 22.426-19.814 39.884-43.93 52.53-72.448 12.544-28.518 18.79-60.314 18.79-95.284 0-26.624-4.71-51.2-14.284-73.626-9.472-22.426-23.398-45.414-41.626-69.018l-84.428-111.77zM595.866 38.4h-157.49v151.756h157.44v-151.758z" />
<glyph unicode="&#x30;" glyph-name="uni30" d="M519.424 164.096c-34.202 0-60.62 27.904-60.62 60.006 0 34.202 26.418 60.57 60.62 60.57 33.486 0 59.904-27.086 59.904-60.57-0.052-32.102-27.136-60.006-59.904-60.006zM554.394 374.528c-1.486-13.518-4.302-14.234-15.002-14.234h-40.704c-10.702 0-13.516 0.716-14.95 14.234l-15.666 278.938c-0.716 12.134-0.716 9.984-0.716 14.284 0 9.216 7.168 9.216 12.85 9.216h76.288c5.682 0 14.284 0 14.284-9.216 0-4.3 0-2.15-0.768-14.284l-15.616-278.938zM512 841.882c-217.498 0-393.882-176.282-393.882-393.882 0-217.498 176.384-393.882 393.882-393.882s393.882 176.384 393.882 393.882c0 217.6-176.384 393.882-393.882 393.882zM512 111.718c-185.394 0-336.282 150.836-336.282 336.282 0 185.394 150.886 336.23 336.282 336.23s336.282-150.836 336.282-336.23c0-185.446-150.886-336.282-336.282-336.282z" />
<glyph unicode="&#x31;" glyph-name="uni31" d="M385.844 548.966h100.966v-100.966h-100.966v100.966zM537.242 548.966h100.966v-100.966h-100.966v100.966zM688.64 548.966h100.966v-100.966h-100.966v100.966zM234.394 397.518h100.966v-100.966h-100.966v100.966zM385.844 397.518h100.966v-100.966h-100.966v100.966zM537.242 397.518h100.966v-100.966h-100.966v100.966zM688.64 397.518h100.966v-100.966h-100.966v100.966zM234.394 246.118h100.966v-100.966h-100.966v100.966zM385.844 246.118h100.966v-100.966h-100.966v100.966zM537.242 246.118h100.966v-100.966h-100.966v100.966zM789.606 750.848v100.916h-151.398v-100.966h-252.366v100.966h-151.45v-100.966h-100.916v-706.61h757.094v706.662h-100.966zM688.64 801.28h50.482v-100.966h-50.482v100.966zM284.878 801.28h50.484v-100.966h-50.484v100.966zM840.090 94.72h-656.178v504.678h656.128v-504.678z" />
<glyph unicode="&#x32;" glyph-name="uni32" d="M445.952 145.152h-236.8v605.696h281.958l172.288-172.39v-29.542h100.966v71.372l-231.476 231.476h-424.654v-807.526h434.33l-94.72 98.918zM814.848 278.222v201.932h-252.366v-201.932h-86.58l109.978-119.194 109.978-114.79 219.904 233.984z" />
<glyph unicode="&#x33;" glyph-name="uni33" d="M915.764 448l-201.882 151.398v-100.916h-151.398v353.28h-100.966v-353.28h-151.398v100.916l-201.882-151.398 201.882-151.398v100.914h151.398v-353.28h100.966v353.28h151.398v-100.914z" />
<glyph unicode="&#x34;" glyph-name="uni34" d="M865.332 851.764h-757.094v-807.526h807.526v807.526h-50.432zM411.084 750.848h50.484v-50.482h-50.484v50.482zM310.118 750.848h50.484v-50.482h-50.484v50.482zM209.204 750.848h50.482v-50.482h-50.484v50.482zM814.848 145.152h-605.644v504.73h605.644v-504.73zM411.084 548.966h353.28v-50.484h-353.28v50.484zM272.282 548.966h75.724v-50.484h-75.726v50.484zM411.084 448h353.28v-50.482h-353.28v50.484zM272.282 448h75.724v-50.482h-75.726v50.484zM411.084 347.086h353.28v-50.482h-353.28v50.482zM272.282 347.086h75.724v-50.482h-75.726v50.482z" />
<glyph unicode="&#x35;" glyph-name="uni35" d="M102.4 448l273.1 218.47v-109.21c491.52 0 546.1-273.1 546.1-327.68-109.21 218.418-491.52 109.158-546.1 109.158v-109.21l-273.1 218.47z" />
<glyph unicode="&#x36;" glyph-name="uni36" d="M921.6 448l-273.1 218.47v-109.21c-491.52 0-546.1-273.1-546.1-327.73 109.21 218.47 491.52 109.21 546.1 109.21v-109.21l273.1 218.47z" />
<glyph unicode="&#x37;" glyph-name="uni37" d="M174.796 857.6l-72.398-72.398 149.198-149.198-85.606-85.606h243.61v243.61l-85.556-85.606zM772.404 636.006l149.198 149.198-72.398 72.398-149.248-149.198-85.556 85.606v-243.61h243.61zM251.598 259.994l-149.198-149.198 72.398-72.398 149.248 149.198 85.556-85.606v243.61h-243.61zM858.010 345.6h-243.61v-243.61l85.554 85.606 149.248-149.198 72.398 72.398-149.198 149.198z" />
<glyph unicode="&#x38;" glyph-name="uni38" d="M921.6 637.542l-291.226 211.712-4.044-99.738c-449.024 18.074-509.132-229.53-511.026-279.346 107.826 195.534 453.222 81.716 502.988 79.668l-4.096-99.788 307.404 187.494zM625.614 731.802l-7.22-179.354c1.74 45.926 3.686 93.082 7.22 179.354zM405.862 346.214l3.942 99.84-307.404-187.546 291.328-211.764 7.27 179.66c-0.922-22.938-1.894-48.794-3.276-79.872 449.126-18.074 509.134 229.376 511.028 279.296-107.726-195.482-452.812-81.664-502.886-79.616z" />
<glyph unicode="&#x39;" glyph-name="uni39" d="M921.6 38.4h-819.2v819.2h819.2v-819.2zM153.6 89.6h716.8v716.8h-716.8v-716.8zM644.302 751.002h145.1v-605.85h-145.1v605.85zM439.5 751.002h145.1v-605.85h-145.1v605.85zM234.7 751.002h145.102v-605.85h-145.1v605.85z" />
<glyph unicode="&#x3b;" glyph-name="uni3B" d="M703.538 361.37c-24.014 0-45.67-7.782-63.692-20.53l-208.998 108.75 206.694 107.622c18.432-13.978 41.164-22.528 65.996-22.528 61.030 0 110.386 49.358 110.386 110.388 0 60.724-49.306 110.13-110.386 110.13-60.826 0-110.386-49.408-110.386-110.182 0-1.434 0.614-2.714 0.922-4.044l-207.616-107.98c-18.432 14.234-41.166 22.682-65.998 22.682-61.030 0-110.388-49.408-110.388-110.284s49.356-110.386 110.388-110.386c27.802 0 52.89 10.802 72.294 27.802l201.37-104.754c-0.052-2.356-0.972-4.658-0.972-7.066 0-60.774 49.614-110.182 110.386-110.182 61.030 0 110.386 49.408 110.386 110.182 0 61.030-49.306 110.386-110.386 110.386z" />
<glyph unicode="&#x41;" glyph-name="uni41" d="M460.8 593.664h102.4v-452.864h-102.4v452.864zM325.376 568.626h373.248l-186.624 186.574z" />
<glyph unicode="&#x44;" glyph-name="uni44" d="M320.102 51.098c212.992 6.144 383.794 181.298 383.794 396.902 0 215.706-170.802 390.758-383.796 396.902v-793.806z" />
<glyph unicode="&#x45;" glyph-name="uni45" d="M819.2 488.142h-267.058v267.060h-80.282v-267.060h-267.060v-80.282h267.060v-267.060h80.282v267.058h267.058z" />
<glyph unicode="&#x46;" glyph-name="uni46" d="M512 448l512 512h-1024z" />
<glyph unicode="&#x47;" glyph-name="uni47" d="M164.384 534.904h260.712l-97.448 97.448c49.242 49.24 114.712 76.36 184.35 76.36s135.11-27.12 184.35-76.36c49.24-49.244 76.36-114.712 76.36-184.35s-27.12-135.11-76.36-184.35c-49.244-49.24-114.712-76.36-184.35-76.36s-135.11 27.12-184.35 76.36c-4.112 4.11-8.050 8.346-11.85 12.674l-65.394-57.222c63.716-72.758 157.284-118.716 261.596-118.716 191.982 0 347.616 155.632 347.616 347.616s-155.632 347.616-347.616 347.616c-95.992 0-182.884-38.92-245.784-101.828l-101.83 101.828v-260.712z" />
<glyph unicode="&#x48;" glyph-name="uni48" d="M349.594 357.99l-155.444-155.392-91.75 91.802v-256h256l-91.75 91.802 155.392 155.342zM665.6 857.6l91.75-91.802-155.392-155.392 72.448-72.448 155.442 155.442 91.75-91.802v256zM349.594 538.010l72.396 72.396-155.342 155.392 91.75 91.802h-256v-256l91.75 91.802zM674.406 358.042l-72.448-72.5 155.392-155.342-91.75-91.802h256v256l-91.852-91.802z" />
<glyph unicode="&#x49;" glyph-name="uni49" d="M399.822 748.902l293.836-305.152-294.348-296.654-68.454 67.994 227.994 229.632-228.506 237.364z" />
<glyph unicode="&#x4f;" glyph-name="uni4F" d="M204.8 755.2v-614.4h614.4v614.4h-614.4zM716.8 243.2h-409.6v409.6h409.6v-409.6z" />
<glyph unicode="&#x50;" glyph-name="uni50" horiz-adv-x="320" d="M62.8 757.2v-614.4h192.4v614.4h-192.4z" />
<glyph unicode="&#x51;" glyph-name="uni51" d="M460.8 755.2h102.4v-452.864h-102.4v452.864zM325.376 327.374h373.248l-186.624-186.572z" />
<glyph unicode="&#x52;" glyph-name="uni52" d="M819.2 409.6h-614.4v76.8h614.4v-76.8z" />
<glyph unicode="&#x53;" glyph-name="uni53" d="M703.898 844.902c-212.992-6.144-383.796-181.298-383.796-396.902 0-215.706 170.802-390.758 383.796-396.902v793.804z" />
<glyph unicode="&#x54;" glyph-name="uni54" d="M512.052 89.6c-95.744 0-185.754 37.274-253.44 104.96-139.776 139.776-139.776 367.154-0.050 506.83 67.738 67.686 157.748 105.010 253.49 105.010s185.754-37.326 253.44-105.010c139.622-139.726 139.622-367.054-0.052-506.83-67.686-67.686-157.696-104.96-253.39-104.96zM512.052 755.2c-82.074 0-159.232-31.95-217.294-90.010-119.758-119.758-119.706-314.676 0.050-434.432 58.010-58.010 135.118-89.958 217.242-89.958 82.074 0 159.182 31.948 217.19 89.958 119.654 119.808 119.706 314.674 0.052 434.432-58.062 58.062-135.168 90.010-217.242 90.010z" />
<glyph unicode="&#x55;" glyph-name="uni55" d="M624.178 748.902l-293.836-305.152 294.35-296.654 68.454 67.942-227.994 229.682 228.506 237.364z" />
<glyph unicode="&#x56;" glyph-name="uni56" d="M648.654 230.298v-89.498l103.066 125.082-69.326-1.996c-18.74 0-33.74-15.104-33.74-33.586zM717.978 755.2h-411.954c-18.638 0-33.74-15.156-33.74-33.638v-547.124c0-18.534 15.104-33.638 33.74-33.638h309.094v119.246c0 18.534 15.206 33.586 33.792 33.586h102.758v427.93c0.052 18.484-14.95 33.638-33.69 33.638zM716.902 516.3h-102.452v-102.45h-68.302v102.452h-102.452v68.302h102.452v102.502h68.302v-102.502h102.452v-68.302z" />
<glyph unicode="&#x57;" glyph-name="uni57" d="M870.4 857.6h-768v-819.2h819.2v819.2h-51.2zM409.6 755.2h51.2v-51.2h-51.2v51.2zM307.2 755.2h51.2v-51.2h-51.2v51.2zM204.8 755.2h51.2v-51.2h-51.2v51.2zM819.2 140.8h-614.4v512h614.4v-512zM294.4 217.6h460.8v-25.6h-460.8v25.6zM294.4 473.6h115.2v-230.4h-115.2v230.4zM467.2 371.2h115.2v-128h-115.2v128zM640 550.4h115.2v-307.2h-115.2v307.2z" />
<glyph unicode="&#x59;" glyph-name="uni59" d="M826.716 798.926l36.204-36.204-665.638-665.638-36.204 36.204 665.638 665.638zM197.29 798.922l665.638-665.732-36.208-36.204-665.638 665.732 36.21 36.204z" />
<glyph unicode="&#x5b;" glyph-name="uni5B" d="M698.674 157.696v-119.296l137.318 166.758-92.416-2.662c-24.884 0-44.902-20.070-44.902-44.8zM518.606 440.014c-7.988-4.71-14.234-12.082-16.178-19.764-0.974-3.38-1.69-8.448 0.974-13.004 5.582-9.882 22.22-11.366 35.942-3.584 8.192 4.812 14.13 11.93 16.434 19.662 0.818 3.482 1.332 8.448-1.332 13.056-5.632 9.932-21.914 11.52-35.84 3.634zM539.29 584.602c-13.722 7.936-30.31 6.298-35.942-3.534-2.662-4.558-1.946-9.524-0.974-13.004 1.946-7.63 8.192-15.052 16.18-19.66 13.978-7.936 30.26-6.4 35.84 3.482 2.662 4.608 2.15 9.626 1.332 13.056-2.254 7.834-8.244 14.95-16.434 19.66zM791.092 857.6h-549.222c-24.832 0-37.070-20.174-37.070-44.8v-518.4h153.6v-51.2h-153.6v-51.2h153.6v-51.2h-153.6v-57.6c0-24.678 12.236-44.8 37.068-44.8h423.73v159.026c0 24.73 8.654 45.774 33.434 45.774h120.166v569.6c0 24.626-3.174 44.8-28.11 44.8zM751.002 412.62c-12.34 7.014-90.726 46.438-125.85 63.95l-49.458-28.262c5.326-9.626 6.298-20.53 3.278-31.13-3.534-13.518-13.26-26.266-27.494-34.406-25.908-14.746-56.73-9.062-69.018 12.442-5.582 9.678-6.4 20.736-3.584 31.386 3.686 13.414 23.142 26.266 33.126 29.39 12.134 3.788 16.282 6.246 16.946 6.4 40.602 7.73 60.62 18.534 70.656 26.726-10.034 8.192-81.356 32.154-87.604 35.686-14.336 8.294-29.44 18.278-33.074 31.744-2.868 10.65-2.048 24.422 3.584 33.996 12.288 21.606 43.11 28.518 69.018 13.774 14.234-8.192 23.91-20.224 27.494-33.69 3.020-10.598 2.048-21.298-3.278-30.874l49.458-28.108c35.124 17.51 113.51 56.986 125.85 64.050 16.128 9.164 35.124-7.168 35.124-7.168l-130.15-74.342 130.15-74.342c-0.052-0.052-19.098-16.384-35.174-7.22zM766.668 500.582v-13.056h-31.846v13.056h31.846zM719.002 500.582v-13.056h-31.948v13.056h31.948zM817.254 487.578h-31.846v13.158h31.846v-13.158z" />
<glyph unicode="&#x5d;" glyph-name="uni5D" d="M707.994 180.174c-17.972-21.658-55.808-39.374-83.968-39.374h-460.8c-28.11 0-51.2 23.040-51.2 51.2v512c0 28.11 23.090 51.2 51.2 51.2h460.8c28.212 0 65.996-17.716 84.020-39.424l190.514-228.454c18.022-21.658 18.022-57.038 0-78.746l-190.566-228.404z" />
<glyph unicode="&#x61;" glyph-name="uni61" d="M698.418 513.536v57.856c0 101.376-83.66 183.808-186.418 183.808s-186.418-82.432-186.418-183.808v-57.856h-41.37v-372.736h455.578v372.736h-41.37zM540.876 223.642h-68.608l17.46 94.976c-10.29 5.938-17.46 16.538-17.46 29.286 0 18.944 15.36 34.304 34.304 34.304 18.894 0 34.304-15.36 34.304-34.304 0-12.75-7.27-23.346-17.458-29.286l17.458-94.976zM615.476 513.536h-207.002v57.856c0 54.732 47.36 100.966 103.526 100.966 56.116 0 103.476-46.182 103.476-100.966v-57.856z" />
<glyph unicode="&#x62;" glyph-name="uni62" d="M332.646 550.706l178.586-205.414 180.122 205.414z" />
<glyph unicode="&#x63;" glyph-name="uni63" d="M614.706 268.646l-205.414 178.586 205.414 180.122z" />
<glyph unicode="&#x64;" glyph-name="uni64" d="M571.852 782.95c-158.77 0-291.788-111.258-326.094-259.738l-128.562 1.536 174.028-281.14 180.634 276.942-119.346 1.33c31.078 91.904 117.146 158.67 219.342 158.67 128.206 0 232.55-104.346 232.55-232.55 0-128.308-104.294-232.55-232.55-232.55-47.412 0-91.442 14.336-128.256 38.86l-55.962-85.76c52.89-35.020 116.224-55.5 184.218-55.5 184.678 0 334.9 150.272 334.9 334.95 0.052 184.628-150.222 334.95-334.9 334.95z" />
<glyph unicode="&#x65;" glyph-name="uni65" d="M206.080 190.72c28.16 0 51.2 23.040 51.2 51.2v337.254c0 28.16 16.282 34.918 36.198 15.002l466.994-467.046c19.918-19.918 52.48-19.918 72.398-0.052 19.918 19.918 19.918 52.48 0 72.398l-466.944 467.046c-19.916 19.916-13.21 36.198 14.95 36.198h337.202c28.16 0 51.2 23.040 51.2 51.2v0c0 28.16-23.040 51.2-51.2 51.2h-409.6c-28.16 0-74.24 0-102.348 0s-51.15 0-51.2 0-0.050-23.040-0.050-51.2v-512c0-28.16 23.040-51.2 51.2-51.2v0z" />
<glyph unicode="&#x66;" glyph-name="uni66" d="M691.2 806.4h102.4v-307.2h-102.4v307.2zM588.8 704h307.2v-102.4h-307.2v102.4zM640 755.2h-409.6v-614.4h286.004l21.198 21.198v132.404h132.404l21.198 21.198v132.404h102.4v-174.798l-234.802-234.802h-430.798v819.2h512v-51.2z" />
<glyph unicode="&#x67;" glyph-name="uni67" d="M729.242 665.294c-119.962 119.91-314.47 119.91-434.38 0-120.014-119.962-120.014-314.522 0-434.484 119.962-120.014 314.47-119.962 434.38 0 119.962 119.86 119.962 314.522 0 434.482zM490.29 648.96h63.694c19.046 0 21.914-11.162 21.914-17.766 0-2.662 0-2.662-0.206-5.836l-0.41-6.656-13.106-232.806c-1.842-17.972-9.626-21.35-22.476-21.35h-33.894c-12.85 0-20.634 3.38-22.476 20.788l-13.568 240.026c-0.204 3.174-0.204 3.174-0.204 5.786 0 6.656 2.714 17.818 20.736 17.818zM523.058 200.858c-33.434 0-60.62 26.982-60.62 60.058 0 33.946 26.624 60.57 60.62 60.57 33.076 0 60.058-27.136 60.058-60.57-0.052-32.562-27.546-60.058-60.058-60.058z" />
<glyph unicode="&#x68;" glyph-name="uni68" d="M564.224 246.784c142.9 0 259.174 116.274 259.174 259.174 0 142.95-116.276 259.226-259.174 259.226-142.95 0-259.226-116.274-259.226-259.226-0.052-142.9 116.274-259.174 259.226-259.174zM564.224 713.984c114.688 0 207.974-93.338 207.974-208.026 0-114.638-93.286-207.974-207.974-207.974s-208.026 93.286-208.026 207.974c-0.052 114.738 93.286 208.026 208.026 208.026zM375.62 347.22l-175.106-180.796 36.778-35.62 175.106 180.796-36.778 35.62z" />
<glyph unicode="&#x69;" glyph-name="uni69" d="M698.738 670.946l36.204-36.204-409.642-409.642-36.204 36.204 409.644 409.642zM325.278 670.972l409.586-409.702-36.21-36.198-409.584 409.702 36.21 36.198z" />
<glyph unicode="&#x6a;" glyph-name="uni6A" d="M511.95 737.382c-159.898 0-289.382-129.586-289.382-289.486 0-159.744 129.486-289.332 289.382-289.332 159.796 0 289.434 129.586 289.434 289.332 0 159.95-129.638 289.486-289.434 289.486zM661.452 345.344l-36.198-36.198-109.876 109.876-109.876-109.876-36.198 36.198 109.876 109.876-109.926 109.876 36.198 36.198 109.874-109.876 109.876 109.876 36.198-36.198-109.876-109.876 109.926-109.876z" />
<glyph unicode="&#x6b;" glyph-name="uni6B" d="M518.092 626.842c100.044 0 181.504-80.178 181.504-178.842s-81.46-178.894-181.504-178.894c-100.096 0-181.606 80.23-181.606 178.894s81.51 178.842 181.606 178.842zM518.092 751.36c-170.034 0-307.866-135.884-307.866-303.36 0-167.578 137.778-303.36 307.866-303.36 169.932 0 307.814 135.782 307.814 303.36 0 167.476-137.83 303.36-307.814 303.36v0zM577.23 709.428c0-22.426-18.33-40.5-41.062-40.5h-46.13c-22.63 0-41.062 18.074-41.062 40.5v107.726c0.050 22.374 18.432 40.448 41.062 40.448h46.13c22.682 0 41.062-18.074 41.062-40.448v-107.726zM577.23 78.798c0-22.426-18.33-40.398-41.062-40.398h-46.13c-22.63 0-41.062 18.022-41.062 40.398v107.674c0 22.476 18.38 40.5 41.062 40.5h46.13c22.682 0 41.062-18.022 41.062-40.5v-107.674zM370.892 679.73c15.974-15.77 15.974-41.422 0-57.14l-32.716-32.154c-15.974-15.822-41.882-15.822-58.060 0l-77.21 76.134c-16.076 15.872-16.076 41.42 0 57.19l32.666 32.206c15.974 15.822 41.932 15.822 58.060 0l77.262-76.236zM823.346 233.83c16.076-15.822 16.026-41.318 0-57.088l-32.614-32.256c-16.076-15.77-41.984-15.77-58.062 0l-77.312 76.186c-16.026 15.822-15.974 41.422 0 57.19l32.666 32.154c16.026 15.822 42.034 15.822 58.062 0l77.26-76.186zM285.082 310.118c15.974 15.77 41.984 15.77 58.112 0l32.614-32.206c16.128-15.822 16.128-41.318 0-57.19l-77.312-76.134c-16.026-15.822-41.984-15.822-58.010 0l-32.716 32.206c-15.974 15.822-16.026 41.37 0 57.088l77.312 76.236zM737.586 756.020c16.076 15.872 42.086 15.822 58.062 0l32.716-32.154c16.026-15.872 16.026-41.422 0-57.242l-77.364-76.134c-15.974-15.822-41.984-15.822-58.010 0l-32.666 32.102c-16.026 15.77-16.026 41.37 0 57.19l77.26 76.236zM771.226 384.87c-22.682 0-41.010 18.022-41.010 40.398v45.466c0 22.374 18.278 40.396 41.010 40.396h109.312c22.682 0 41.062-18.022 41.062-40.396v-45.518c0-22.374-18.38-40.398-41.114-40.398h-109.26zM143.412 384.87c-22.682 0-41.010 18.022-41.010 40.398v45.466c0 22.374 18.33 40.396 41.010 40.396h109.362c22.682 0 41.012-18.022 41.012-40.396v-45.518c0-22.374-18.278-40.398-41.010-40.398h-109.362z" />
<glyph unicode="&#x6c;" glyph-name="uni6C" d="M512 232.654l253.134-194.252-97.486 313.19 253.952 193.126-313.446-0.716-96.154 313.6-96.204-313.6-313.394 0.716 253.952-193.126-97.486-313.19z" />
<glyph unicode="&#x6d;" glyph-name="uni6D" d="M912.59 639.078l-116.224 116.122-381.902-382.054-186.83 186.778-116.224-116.122 302.798-303.002 4.916 5.12 0.204-0.206z" />
<glyph unicode="&#x6e;" glyph-name="uni6E" d="M409.294 268.646l205.414 178.586-205.414 180.122z" />
<glyph unicode="&#x6f;" glyph-name="uni6F" d="M866.816 751.412l-9.626-222.976-457.318-443.596 44.646-42.24 464.076 456.858 13.004 255.026zM844.85 773.53l3.43 79.872-298.854-17.1-447.026-446.976 64.154-64.052 221.696-221.746 447.026 447.028 9.574 222.976zM375.346 153.394l-223.13 222.976 39.014 38.912 32.768-32.666 190.362-190.31-39.014-38.912zM748.902 666.164c-23.91-23.91-62.514-23.91-86.322 0-23.91 23.758-23.91 62.414 0 86.272 5.018 5.018 10.752 8.756 16.794 11.622 14.592 7.066 31.232 7.936 46.386 2.61 8.448-2.866 16.384-7.526 23.194-14.234 23.808-23.858 23.808-62.514-0.052-86.272z" />
<glyph unicode="&#x70;" glyph-name="uni70" d="M529.51 875.878c-218.676 0-396.032-171.878-396.698-376.678h90.164c0.666 153.6 137.678 286.618 306.484 286.618 169.318 0 297.062-146.636 297.062-315.954 0-168.756-109.722-315.034-314.522-315.854v-90.164c256 0.818 404.634 187.442 404.634 406.016 0 219.136-167.986 406.016-387.124 406.016zM772.352 460.544c0 139.418-108.186 271.104-247.602 271.104-138.956 0-247.040-78.848-247.654-232.448h90.164c0.666 102.4 73.010 142.388 162.252 142.388 89.6 0 152.78-82.074 152.78-171.674 0-89.14-67.89-170.752-170.29-171.572v-90.164c153.6 0.768 260.352 113.51 260.352 252.366zM610.1 460.544c0 49.818-35.534 108.85-85.35 108.85-49.356 0-84.788-18.996-85.298-70.194h72.55v-128.718c51.2 0.716 98.1 40.806 98.1 90.062zM163.276 294.4h146.278l-207.36-203.572 61.236-59.342 207.36 207.974-0.102-145.818 88.116 88.218 0.102 207.564-207.514-3.38z" />
<glyph unicode="&#x71;" glyph-name="uni71" d="M128.372 705.76h767.31v-73.662h-767.31v73.662zM128.372 558.438h767.31v-73.662h-767.31v73.662zM128.372 411.112h767.31v-73.606h-767.31v73.606zM128.372 263.846h767.31v-73.606h-767.31v73.606z" />
<glyph unicode="&#x72;" glyph-name="uni72" d="M870.4 857.6h-716.8l307.2-414.464v-404.736l102.4 102.4v302.336l307.2 414.464z" />
<glyph unicode="&#x73;" glyph-name="uni73" d="M768 704v-512l-512 512z" />
<glyph unicode="&#x74;" glyph-name="uni74" d="M609.996 857.6h-430.798v-819.2h665.6v584.398l-234.802 234.802zM742.4 140.8h-460.8v614.4h286.002l21.198-21.248v-132.352h132.404l21.198-21.248v-439.552zM335.616 530.688h77.978l82.278-126.158 83.354 126.156 73.266-1.69-120.78-173.004 126.158-183.706h-77.004l-88.934 134.502-86.426-134.502h-76.238l126.156 183.706-119.808 174.694zM579.226 530.688l73.266-1.69-218.164-306.74 59.188-0.614-26.368-49.356h-137.882l249.958 358.4z" />
<glyph unicode="&#x75;" glyph-name="uni75" d="M512 665.242l434.432-434.482h-868.864z" />
<glyph unicode="&#x76;" glyph-name="uni76" d="M691.354 345.294l-178.586 205.414-180.122-205.414z" />
<glyph unicode="&#x77;" glyph-name="uni77" d="M807.27 715.93c-28.16 0-51.2-23.040-51.2-51.2v-337.254c0-28.16-16.282-34.918-36.198-15.002l-466.996 467.046c-19.918 19.918-52.48 19.968-72.396 0.052s-19.918-52.48 0-72.398l466.994-467.046c19.918-19.918 13.158-36.198-15.002-36.198h-337.202c-28.16 0-51.2-23.040-51.2-51.2v0c0-28.16 23.040-51.2 51.2-51.2h409.6c28.16 0 74.24 0 102.35 0s51.15 0 51.2 0c0.052 0 0.052 23.040 0.052 51.2v512c0 28.16-23.040 51.2-51.2 51.2v0z" />
<glyph unicode="&#x78;" glyph-name="uni78" d="M484.812 531.302c2.098-1.074 4.198-1.894 5.99-3.686l101.018-100.812c11.212-11.212 8.806-31.794-5.582-45.876l-231.218-231.476c-14.388-14.080-34.918-16.588-45.978-5.428l-101.018 100.914c-11.212 11.212-8.704 31.692 5.426 45.876l115.814 115.814-53.044 52.992-159.078-159.18c-19.61-19.302-19.61-51.098 0-70.502l176.692-176.794c19.61-19.61 51.2-19.61 70.81 0l318.002 318.106c19.61 19.61 19.61 51.302 0 70.81l-143.616 143.514-54.222-54.272zM659.506 842.802l-318.106-318.106c-19.61-19.508-19.61-50.996 0-70.706l139.212-139.212 52.992 53.198c-0.102 0.102-0.206 0.102-0.41 0.41l-100.966 100.812c-11.214 11.214-8.704 31.796 5.582 45.876l231.322 231.526c14.284 14.286 34.714 16.692 45.876 5.53l101.018-101.018c11.11-11.314 8.806-31.692-5.478-45.926l-115.712-115.814 52.992-52.992 159.078 159.182c19.558 19.404 19.558 51.098 0 70.4l-176.692 176.794c-19.61 19.764-51.2 19.764-70.706 0.052z" />
<glyph unicode="&#x79;" glyph-name="uni79" d="M614.4 704c0-28.16-23.040-51.2-51.2-51.2h-102.4c-28.16 0-51.2 23.040-51.2 51.2v102.4c0 28.11 23.040 51.2 51.2 51.2h102.4c28.16 0 51.2-23.092 51.2-51.2v-102.4zM614.4 396.8c0-28.16-23.040-51.2-51.2-51.2h-102.4c-28.16 0-51.2 23.040-51.2 51.2v102.4c0 28.11 23.040 51.2 51.2 51.2h102.4c28.16 0 51.2-23.090 51.2-51.2v-102.4zM614.4 89.6c0-28.16-23.040-51.2-51.2-51.2h-102.4c-28.16 0-51.2 23.040-51.2 51.2v102.4c0 28.11 23.040 51.2 51.2 51.2h102.4c28.16 0 51.2-23.092 51.2-51.2v-102.4z" />
<glyph unicode="&#x7a;" glyph-name="uni7A" horiz-adv-x="1616" d="M737.736 620.147v-155.56h160.87v-40.386h-160.87v-186.49h-39.185v422.822h227.941v-40.386h-188.756zM600.104 329.471c-4.855-17.225-12.934-32.765-24.233-46.572-13.105-16.283-27.971-28.46-44.686-36.576-16.586-8.117-34.374-12.175-53.279-12.175-18.303 0-35.318 3.761-51.345 11.333-15.941 7.426-30.12 18.364-42.538 32.669-8.594 9.85-15.21 20.094-19.808 30.833-4.64 10.74-8.078 22.618-10.312 35.982-2.278 13.215-3.565 28.311-3.868 45.138-0.344 16.777-0.515 36.527-0.515 59.045s0.172 42.217 0.515 59.046c0.302 16.826 1.591 31.924 3.868 45.137 2.235 13.266 5.672 25.241 10.312 35.981 4.596 10.741 11.215 20.986 19.808 30.834 25.396 29.399 56.717 44.002 93.883 44.002 17.444 0 33.556-3.118 48.165-9.207 14.61-6.186 27.457-14.898 38.457-26.082 11-11.335 19.979-24.649 27.026-40.139 7.046-15.442 11.987-32.468 14.696-51.127h-39.229c-5.114 26.973-15.511 48.058-31.108 63.3-15.683 15.197-35.019 22.818-58.006 22.818-12.075 0-23.675-2.574-34.804-8.018-11.171-5.297-20.753-12.771-28.616-22.225-5.888-6.779-10.483-13.909-13.965-21.678-3.438-7.719-6.015-16.877-7.69-27.616-1.761-10.74-2.88-23.708-3.35-38.855-0.516-15.293-0.774-34.049-0.774-56.174s0.258-40.882 0.774-56.174c0.474-15.145 1.589-28.211 3.35-39.148 1.676-10.938 4.254-20.194 7.69-27.916 3.48-7.768 8.078-14.993 13.965-21.677 7.863-9.454 17.445-16.83 28.616-21.929 11.129-5.247 22.729-7.722 34.804-7.722 13.363 0 26.213 2.97 38.37 9.157 12.246 6.089 22.645 15.195 31.193 26.976 7.562 10.343 12.934 21.579 15.941 33.654 3.138 11.978 4.727 26.38 4.727 43.009v32.070h-90.232v39.745h129.419v-67.063c0-24.549-2.448-45.436-7.218-62.659v0.003h-0.003zM1207.942 542.432c0 26.082-6.79 45.633-20.322 58.503-13.577 12.817-31.194 19.202-52.85 19.202h-97.923v-154.964h97.923c21.656 0 39.271 6.286 52.85 19.055 13.534 12.671 20.322 32.022 20.322 58.202v0.002zM1208.457 237.749l-83.527 187.631h-88.084v-187.631h-39.229v422.823h140.761c15.769 0 30.377-2.624 43.784-8.018 13.449-5.347 24.922-13.067 34.59-23.115 9.581-10.146 17.057-22.521 22.429-37.12 5.371-14.702 7.949-31.13 7.949-49.296 0-30.933-7.392-56.175-22.171-75.827-14.738-19.5-33.987-32.071-57.707-37.664l87.095-191.787-45.889 0.004z" />
<glyph unicode="&#x7b;" glyph-name="uni7B" horiz-adv-x="1616" d="M558.347 238.004h39.112v186.143h160.572v40.312h-160.572v155.27h188.405v40.311h-227.517zM386.71 419.402h90.064v-32.012c0-16.598-1.585-30.973-4.718-42.929-3.001-12.052-8.363-23.268-15.911-33.592-8.533-11.758-18.912-20.849-31.135-26.926-12.134-6.176-24.959-9.14-38.298-9.14-12.051 0-23.63 2.47-34.738 7.707-11.15 5.089-20.714 12.452-28.564 21.889-5.875 6.671-10.464 13.883-13.939 21.636-3.43 7.708-6.002 16.947-7.675 27.864-1.757 10.917-2.871 23.958-3.344 39.075-0.515 15.263-0.772 33.985-0.772 56.070s0.257 40.805 0.772 56.069c0.47 15.121 1.586 28.063 3.344 38.784 1.672 10.719 4.244 19.86 7.675 27.564 3.476 7.754 8.063 14.871 13.939 21.637 7.849 9.438 17.413 16.897 28.564 22.184 11.107 5.434 22.687 8.002 34.738 8.002 22.945 0 42.245-7.606 57.898-22.775 15.568-15.214 25.945-36.261 31.050-63.182h39.156c-2.703 18.624-7.635 35.619-14.668 51.032-7.033 15.46-15.997 28.751-26.976 40.064-10.979 11.163-23.803 19.86-38.384 26.033-14.582 6.077-30.664 9.188-48.076 9.188-37.097 0-68.36-14.575-93.708-43.92-8.576-9.829-15.183-20.056-19.77-30.776-4.631-10.721-8.062-22.673-10.292-35.914-2.273-13.189-3.56-28.259-3.861-45.054-0.34-16.796-0.513-36.46-0.513-58.936s0.169-42.189 0.513-58.935c0.303-16.796 1.587-31.865 3.861-45.055 2.229-13.339 5.661-25.195 10.292-35.915 4.589-10.72 11.193-20.944 19.77-30.775 12.395-14.278 26.547-25.195 42.458-32.608 15.998-7.558 32.981-11.312 51.25-11.312 18.87 0 36.625 4.050 53.18 12.152 16.685 8.101 31.521 20.255 44.602 36.508 11.279 13.782 19.342 29.294 24.188 46.485h0.001v-0.003c4.762 17.191 7.205 38.039 7.205 62.543v66.939h-129.178v-39.666zM1052.080 467.062c14.751 19.615 22.13 44.81 22.13 75.686 0 18.131-2.574 34.529-7.936 49.204-5.361 14.572-12.823 26.925-22.386 37.051-9.651 10.030-21.102 17.735-34.526 23.072-13.383 5.385-27.964 8.003-43.703 8.003h-140.499v-422.036h39.157v187.282h87.919l83.373-187.283 45.803-0.004-86.932 191.431c23.676 5.582 42.888 18.131 57.6 37.594zM864.319 465.043v154.676h97.739c21.615 0 39.2-6.374 52.752-19.167 13.508-12.846 20.285-32.361 20.285-58.394v-0.002c0-26.13-6.776-45.446-20.285-58.094-13.553-12.746-31.135-19.020-52.752-19.020l-97.739 0.001zM1320.457 343.661c-3.002-12.054-8.363-23.268-15.912-33.592-8.532-11.759-18.912-20.849-31.135-26.927-12.135-6.176-24.96-9.14-38.298-9.14-12.052 0-23.631 2.47-34.738 7.708-11.15 5.089-20.715 12.451-28.563 21.888-5.876 6.671-10.465 13.883-13.939 21.636-3.43 7.708-6.002 16.947-7.676 27.864-1.757 10.917-2.871 23.959-3.344 39.076-0.515 15.263-0.772 33.985-0.772 56.069s0.257 40.805 0.772 56.069c0.47 15.121 1.587 28.063 3.344 38.783 1.673 10.72 4.245 19.861 7.676 27.565 3.476 7.754 8.063 14.871 13.939 21.637 7.848 9.438 17.412 16.896 28.563 22.184 11.107 5.434 22.687 8.003 34.738 8.003 22.944 0 42.244-7.606 57.896-22.775 15.569-15.214 25.947-36.26 31.052-63.183h39.156c-2.703 18.625-7.636 35.62-14.669 51.033-7.034 15.46-15.996 28.75-26.976 40.064-10.979 11.163-23.803 19.86-38.385 26.033-14.581 6.077-30.663 9.188-48.076 9.188-37.098 0-68.36-14.576-93.708-43.92-8.576-9.829-15.184-20.055-19.771-30.776-4.631-10.72-8.063-22.672-10.292-35.914-2.274-13.188-3.56-28.258-3.861-45.053-0.341-16.797-0.513-36.46-0.513-58.937s0.17-42.188 0.513-58.935c0.304-16.796 1.587-31.864 3.861-45.055 2.229-13.339 5.661-25.194 10.292-35.914 4.589-10.721 11.193-20.945 19.771-30.776 12.395-14.278 26.546-25.195 42.458-32.607 15.997-7.558 32.98-11.313 51.249-11.313 18.869 0 36.625 4.051 53.181 12.152 16.684 8.101 31.521 20.256 44.602 36.508 11.279 13.781 19.342 29.294 24.189 46.485h0.001v-0.003c2.674 9.653 4.616 20.46 5.805 32.418h-39.155c-0.778-6.32-1.869-12.176-3.275-17.543z" />
<glyph unicode="&#x7c;" glyph-name="uni7C" horiz-adv-x="1616" d="M1050.162 467.196c14.779 19.652 22.171 44.894 22.171 75.827 0 18.166-2.579 34.593-7.95 49.295-5.371 14.6-12.848 26.975-22.428 37.121-9.668 10.048-21.141 17.769-34.591 23.115-13.407 5.396-28.015 8.018-43.783 8.018h-140.761v-422.823h39.23v187.631h88.084l83.526-187.633 45.889-0.003-87.095 191.787c23.721 5.592 42.969 18.165 57.708 37.665zM862.051 465.173v154.964h97.922c21.655 0 39.273-6.385 52.85-19.202 13.533-12.87 20.322-32.421 20.322-58.503v-0.002c0-26.179-6.788-45.53-20.322-58.202-13.578-12.77-31.192-19.055-52.85-19.055h-97.922zM383.552 419.446h90.232v-32.071c0-16.628-1.588-31.030-4.726-43.008-3.007-12.075-8.379-23.312-15.941-33.654-8.548-11.781-18.947-20.888-31.193-26.978-12.157-6.187-25.006-9.156-38.37-9.156-12.074 0-23.675 2.475-34.803 7.723-11.171 5.098-20.753 12.475-28.617 21.929-5.887 6.684-10.484 13.908-13.965 21.676-3.436 7.723-6.013 16.979-7.689 27.916-1.76 10.938-2.876 24.004-3.35 39.148-0.516 15.291-0.774 34.049-0.774 56.174s0.257 40.881 0.774 56.174c0.471 15.149 1.589 28.116 3.35 38.856 1.675 10.739 4.252 19.896 7.689 27.615 3.482 7.769 8.077 14.899 13.965 21.678 7.863 9.455 17.445 16.928 28.617 22.225 11.128 5.444 22.729 8.018 34.803 8.018 22.987 0 42.323-7.621 58.006-22.818 15.598-15.242 25.994-36.328 31.107-63.3h39.229c-2.708 18.659-7.65 35.685-14.696 51.127-7.046 15.489-16.027 28.804-27.026 40.139-11 11.184-23.847 19.896-38.456 26.082-14.609 6.088-30.721 9.206-48.166 9.206-37.167 0-68.488-14.603-93.883-44.002-8.592-9.847-15.211-20.093-19.807-30.833-4.64-10.741-8.077-22.715-10.312-35.981-2.277-13.213-3.566-28.312-3.868-45.137-0.341-16.828-0.514-36.529-0.514-59.046s0.17-42.268 0.514-59.045c0.303-16.827 1.59-31.924 3.868-45.138 2.233-13.364 5.671-25.242 10.312-35.982 4.598-10.739 11.213-20.983 19.807-30.833 12.418-14.305 26.597-25.242 42.537-32.669 16.027-7.571 33.042-11.333 51.345-11.333 18.905 0 36.693 4.058 53.279 12.175 16.715 8.116 31.58 20.294 44.685 36.576 11.3 13.808 19.378 29.349 24.233 46.572h0.001v-0.003c4.771 17.224 7.219 38.11 7.219 62.66v67.062h-129.416v-39.744zM555.509 237.71h39.185v186.49h160.87v40.387h-160.87v155.56h188.756v40.386h-227.941zM1354.373 620.147v40.386h-227.941v-422.823h39.185v186.49h160.871v40.387h-160.871v155.56z" />
<glyph unicode="&#x7d;" glyph-name="uni7D" d="M537.96 818.215v0.176h-48.643v-0.176c-195.563-12.574-350.874-175.682-350.874-374.361 0-198.73 155.266-361.89 350.874-374.465v-0.46h48.643v0.46c195.606 12.576 350.872 175.735 350.872 374.465 0 198.678-155.31 361.786-350.872 374.361zM456.481 765.392c-77.585-96.109-123.657-191.623-137.741-285.392h-129.645c15.949 144.176 126.11 260.351 267.386 285.392zM187.346 431.36h126.959c-0.615-19.27 0.129-38.456 2.264-57.548 12.346-110.587 68.217-194.041 115.078-246.139-136.638 35.459-238.772 157.396-244.301 303.687zM489.318 138.238c-43.979 43.214-111.87 126.874-124.466 241.563-1.882 17.066-2.497 34.257-1.862 51.56h126.328v-293.123zM489.318 728.676v-248.676h-121.287c13.75 80.944 54.295 164.135 121.286 248.678v-0.002zM838.19 480h-129.682c-14.097 93.784-60.165 189.285-137.731 285.396 141.295-25.033 251.495-141.215 267.413-285.396zM537.96 728.674c66.979-84.527 107.521-167.729 121.278-248.674h-121.278v248.674zM537.96 138.191v293.169h126.324c0.638-17.32 0.023-34.527-1.86-51.609-12.595-114.686-80.432-198.347-124.464-241.56zM595.629 127.673c46.861 52.098 102.731 135.552 115.076 246.137 2.127 19.095 2.865 38.282 2.246 57.55h126.979c-5.529-146.292-107.663-268.228-244.301-303.687z" />
<glyph unicode="&#xe600;" glyph-name="uniE600" d="M512 755.2c-169.728 0-307.2-137.523-307.2-307.2 0-169.728 137.472-307.2 307.2-307.2 169.677 0 307.2 137.472 307.2 307.2 0 169.677-137.523 307.2-307.2 307.2zM586.394 275.661c-16.179-6.4-28.877-11.264-38.502-14.694-9.626-3.174-20.787-4.915-33.485-4.915-19.661 0-34.714 4.762-45.517 14.285s-16.179 21.606-16.179 36.096c0 5.786 0.512 11.52 1.178 17.459 1.024 5.939 2.202 12.646 3.994 20.224l20.070 71.066c1.741 6.963 3.379 13.261 4.608 19.507 1.229 6.093 1.843 11.622 1.843 16.538 0 9.267-1.894 15.514-5.53 19.046-3.994 3.584-11.11 5.376-21.555 5.376-5.274 0-10.65-0.768-16.077-2.406-5.427-1.69-10.189-3.072-13.978-4.71l5.12 22.016c13.21 5.376 26.112 9.83 38.093 13.773 12.032 3.789 23.398 5.632 33.894 5.632 19.558 0 34.56-4.506 44.954-13.875 10.598-9.267 15.974-21.555 15.974-36.506 0-3.123-0.563-8.499-1.178-16.282-0.922-7.782-2.202-15.002-4.096-21.504l-19.917-70.912c-1.741-5.581-3.379-12.083-4.608-19.405-1.229-7.526-1.894-12.954-1.894-16.64 0-9.472 1.997-15.77 6.502-19.251 3.891-3.482 11.418-5.222 21.76-5.222 4.813 0 10.291 0.973 16.64 2.714 6.042 1.741 10.445 3.174 13.261 4.403l-5.376-21.811zM582.81 563.661c-9.165-8.806-20.48-13.107-33.69-13.107s-24.525 4.301-33.997 13.107c-9.574 8.602-14.029 19.2-14.029 31.386 0 12.442 4.454 22.886 13.978 31.744s20.787 13.158 33.997 13.158 24.525-4.301 33.69-13.158c9.165-8.858 13.978-19.302 13.978-31.744 0-12.186-4.813-22.784-13.926-31.386z" />
<glyph unicode="&#xe601;" glyph-name="exclam" horiz-adv-x="355" d="M279.552 869.888l-33.792-500.736h-98.304l-32.768 500.736h164.864zM273.408 140.8h-152.576v151.552h152.576v-151.552z" />
</font>
</defs>
</svg>
